<?xml version="1.0" encoding="UTF-8"?>
<svg id="Camada_1" xmlns="http://www.w3.org/2000/svg" version="1.1" viewBox="0 0 240.94 85.04">
  <!-- Generator: Adobe Illustrator 29.8.1, SVG Export Plug-In . SVG Version: 2.1.1 Build 2)  -->
  <defs>
    <style>
      .st0 {
        fill: #62cdd2;
      }

      .st1 {
        fill: #0099a8;
      }

      .st2 {
        opacity: .5;
      }
    </style>
  </defs>
  <g>
    <path class="st1" d="M80.66,5.59l-2.26,3.09-16.01,21.89-.49.66-.02.03-.02.02h0s-.37.51-.37.51v22.79h-10.38v-22.77l-.39-.53h0s-.02-.03-.02-.03l-.02-.03-.49-.66-16.01-21.89-2.26-3.09h12.85l.58.8,10.93,14.94,10.93-14.94.58-.8h12.85Z"/>
    <path class="st1" d="M108.34,25.5l-6.54,11.7-16.01-28.93-1.41-2.55h13.02l.37.66,10.58,19.11ZM140.57,5.72l-1.41,2.55-25.2,46.33h-2.8l-5.23-9.94,6.54-11.7h0s1.22-2.2,1.22-2.2l2.15-3.88,11.34-20.49.37-.66h13.02Z"/>
    <path class="st1" d="M190.04,5.72v10.38h-43.66V5.72h43.66ZM156.76,44.21h33.28v10.38h-43.66v-10.38s0-20.94,0-20.94l10.38.07h28.93v10.38h-28.93v10.49Z"/>
    <path class="st1" d="M237.02,5.64v48.95h-2.48l-7.33-7.33-12.3-12.3-7.11-7.11-10.38-10.38V6.63s0-1.26,0-1.26h2.58l26.64,26.64V5.64h10.38ZM197.42,27.71l10.38,10.38v16.44h-10.38v-26.81Z"/>
  </g>
  <rect class="st0" x="4.77" y="68.79" width="31.05" height=".65"/>
  <rect class="st0" x="202.72" y="68.79" width="34.3" height=".65"/>
  <polygon class="st1" points="15.15 44.21 15.15 5.37 4.77 5.37 4.77 54.59 43.66 54.59 43.66 53.79 34.08 44.21 15.15 44.21"/>
  <g>
    <path class="st1" d="M42.49,65.33h1.62c2.02,0,2.22,1.3,2.22,2.72v3.7c0,1.43-.22,2.9-2.3,2.9h-1.54v-9.32ZM43.37,73.87h.59c1.17,0,1.46-.64,1.46-1.92v-4.02c0-1.13-.2-1.81-1.45-1.81h-.6v7.76Z"/>
    <path class="st1" d="M50.53,65.33v9.32h-.89v-9.32h.89Z"/>
    <path class="st1" d="M54.48,72.05v.53c0,.92.33,1.41,1,1.41s.98-.47.98-1.59-.25-1.56-1.22-2.32c-1-.78-1.49-1.24-1.49-2.61,0-1.17.35-2.28,1.76-2.27,1.31,0,1.7.86,1.7,2.08v.42h-.88v-.39c0-.8-.16-1.33-.84-1.33s-.85.6-.85,1.35c0,.92.18,1.25,1.05,1.9,1.27.96,1.67,1.5,1.67,3.04,0,1.31-.35,2.49-1.89,2.49-1.45,0-1.88-.96-1.88-2.19v-.53h.89Z"/>
    <path class="st1" d="M64.08,72v.3c0,1.21-.22,2.46-1.84,2.46s-1.84-1.16-1.84-2.51v-4.75c0-1.5.64-2.3,1.85-2.3,1.52,0,1.79,1.1,1.79,2.3v.35h-.9v-.4c0-.77-.11-1.44-.9-1.44-.75,0-.93.6-.93,1.47v4.82c0,1.01.22,1.66.96,1.66.78,0,.91-.68.91-1.6v-.36h.91Z"/>
    <path class="st1" d="M70.98,67.57v4.78c0,1.6-.66,2.42-2,2.42-1.43,0-1.92-.93-1.92-2.41v-4.78c0-1.54.68-2.37,1.98-2.37,1.37,0,1.94.97,1.94,2.37ZM67.97,67.55v4.87c0,1.11.4,1.54,1.05,1.54.68,0,1.05-.42,1.05-1.59v-4.82c0-1.05-.37-1.54-1.06-1.54s-1.05.47-1.05,1.53Z"/>
    <path class="st1" d="M75.36,74.64l-1.62-9.32h.96l.65,4.27c.2,1.31.49,2.97.57,3.91h.02c.07-.92.38-2.58.57-3.87l.67-4.3h.94l-1.64,9.32h-1.12Z"/>
    <path class="st1" d="M84.03,70.07h-2.1v3.76h2.38l-.12.81h-3.14v-9.32h3.11v.82h-2.22v3.11h2.1v.81Z"/>
    <path class="st1" d="M88.1,70.25v4.39h-.89v-9.32h1.54c1.4,0,2.05.61,2.05,2.12v.44c0,1.23-.41,1.78-.95,1.97.6.21.87.67.87,1.91,0,.8-.01,2.28.09,2.88h-.87c-.12-.58-.1-2.16-.1-2.81,0-1.22-.17-1.59-1.12-1.59h-.63ZM88.1,69.49h.67c.91,0,1.13-.57,1.13-1.56v-.44c0-.88-.25-1.41-1.21-1.41h-.6v3.4Z"/>
    <g class="st2">
      <path class="st1" d="M99.56,68.29v1.81h-1.7v-1.81h1.7Z"/>
    </g>
    <path class="st1" d="M106.88,65.33h3.15v.82h-2.27v3.17h2.13v.82h-2.13v4.51h-.89v-9.32Z"/>
    <path class="st1" d="M115.97,70.07h-2.1v3.76h2.38l-.12.81h-3.14v-9.32h3.11v.82h-2.22v3.11h2.1v.81Z"/>
    <path class="st1" d="M122.13,70.07h-2.1v3.76h2.38l-.12.81h-3.14v-9.32h3.11v.82h-2.22v3.11h2.1v.81Z"/>
    <path class="st1" d="M125.32,65.33h.89v8.52h2.34l-.11.8h-3.12v-9.32Z"/>
    <g class="st2">
      <path class="st1" d="M136.83,68.29v1.81h-1.7v-1.81h1.7Z"/>
    </g>
    <path class="st1" d="M147.62,72v.3c0,1.21-.22,2.46-1.84,2.46s-1.84-1.16-1.84-2.51v-4.75c0-1.5.64-2.3,1.85-2.3,1.52,0,1.79,1.1,1.79,2.3v.35h-.9v-.4c0-.77-.11-1.44-.9-1.44-.75,0-.93.6-.93,1.47v4.82c0,1.01.22,1.66.96,1.66.78,0,.91-.68.91-1.6v-.36h.91Z"/>
    <path class="st1" d="M153.68,70.07h-2.1v3.76h2.38l-.12.81h-3.14v-9.32h3.11v.82h-2.22v3.11h2.1v.81Z"/>
    <path class="st1" d="M156.87,65.33h.89v8.52h2.34l-.11.8h-3.12v-9.32Z"/>
    <path class="st1" d="M165.79,70.07h-2.1v3.76h2.38l-.12.81h-3.14v-9.32h3.11v.82h-2.22v3.11h2.1v.81Z"/>
    <path class="st1" d="M168.97,65.33h1.55c1.41,0,1.93.76,1.93,2v.44c0,1.31-.38,1.71-.86,1.89.53.16,1.06.62,1.06,1.87v.68c0,1.63-.54,2.43-2.12,2.43h-1.56v-9.32ZM170.5,69.3c.84,0,1.1-.36,1.1-1.48v-.43c0-.86-.32-1.31-1.15-1.31h-.62v3.22h.67ZM169.83,73.89h.63c1.04,0,1.3-.51,1.3-1.69v-.65c0-1.04-.38-1.49-1.28-1.49h-.65v3.83Z"/>
    <path class="st1" d="M176.69,70.25v4.39h-.89v-9.32h1.54c1.4,0,2.05.61,2.05,2.12v.44c0,1.23-.41,1.78-.95,1.97.6.21.87.67.87,1.91,0,.8-.01,2.28.09,2.88h-.87c-.12-.58-.1-2.16-.1-2.81,0-1.22-.17-1.59-1.12-1.59h-.63ZM176.69,69.49h.67c.91,0,1.13-.57,1.13-1.56v-.44c0-.88-.25-1.41-1.21-1.41h-.6v3.4Z"/>
    <path class="st1" d="M183.58,71.56l-.47,3.09h-.9l1.54-9.32h1.27l1.6,9.32h-.93l-.51-3.09h-1.6ZM185.06,70.74c-.35-2.16-.59-3.77-.68-4.61h-.04c-.03.71-.38,2.83-.65,4.61h1.36Z"/>
    <path class="st1" d="M189.83,66.15h-1.51v-.82h3.89v.82h-1.5v8.5h-.89v-8.5Z"/>
    <path class="st1" d="M197.98,70.07h-2.1v3.76h2.38l-.12.81h-3.14v-9.32h3.11v.82h-2.22v3.11h2.1v.81Z"/>
  </g>
</svg>